<?xml version="1.0" encoding="UTF-8" standalone="no"?>
<!DOCTYPE svg PUBLIC "-//W3C//DTD SVG 1.1//EN"
 "http://www.w3.org/Graphics/SVG/1.1/DTD/svg11.dtd">
<!-- Generated by graphviz version 2.40.1 (0)
 -->
<!-- Title: snakemake_dag Pages: 1 -->
<svg width="1010pt" height="476pt"
 viewBox="0.00 0.00 1010.00 476.00" xmlns="http://www.w3.org/2000/svg" xmlns:xlink="http://www.w3.org/1999/xlink">
<g id="graph0" class="graph" transform="scale(1 1) rotate(0) translate(4 472)">
<title>snakemake_dag</title>
<polygon fill="#ffffff" stroke="transparent" points="-4,4 -4,-472 1006,-472 1006,4 -4,4"/>
<!-- 0 -->
<g id="node1" class="node">
<title>0</title>
<path fill="none" stroke="#56c9d8" stroke-width="2" d="M485,-36C485,-36 413,-36 413,-36 407,-36 401,-30 401,-24 401,-24 401,-12 401,-12 401,-6 407,0 413,0 413,0 485,0 485,0 491,0 497,-6 497,-12 497,-12 497,-24 497,-24 497,-30 491,-36 485,-36"/>
<text text-anchor="middle" x="449" y="-15.5" font-family="sans" font-size="10.00" fill="#000000">make_summary</text>
</g>
<!-- 1 -->
<g id="node2" class="node">
<title>1</title>
<path fill="none" stroke="#78d856" stroke-width="2" d="M84,-180C84,-180 12,-180 12,-180 6,-180 0,-174 0,-168 0,-168 0,-156 0,-156 0,-150 6,-144 12,-144 12,-144 84,-144 84,-144 90,-144 96,-150 96,-156 96,-156 96,-168 96,-168 96,-174 90,-180 84,-180"/>
<text text-anchor="middle" x="48" y="-159.5" font-family="sans" font-size="10.00" fill="#000000">make_rulegraph</text>
</g>
<!-- 1&#45;&gt;0 -->
<g id="edge6" class="edge">
<title>1&#45;&gt;0</title>
<path fill="none" stroke="#c0c0c0" stroke-width="2" d="M35.5135,-143.8634C23.4567,-123.8998 9.4025,-91.9928 27,-72 50.6379,-45.1446 280.2176,-28.0082 390.471,-21.2623"/>
<polygon fill="#c0c0c0" stroke="#c0c0c0" stroke-width="2" points="390.9862,-24.7376 400.7573,-20.6419 390.5647,-17.7503 390.9862,-24.7376"/>
</g>
<!-- 2 -->
<g id="node3" class="node">
<title>2</title>
<path fill="none" stroke="#d85656" stroke-width="2" d="M125.5,-108C125.5,-108 48.5,-108 48.5,-108 42.5,-108 36.5,-102 36.5,-96 36.5,-96 36.5,-84 36.5,-84 36.5,-78 42.5,-72 48.5,-72 48.5,-72 125.5,-72 125.5,-72 131.5,-72 137.5,-78 137.5,-84 137.5,-84 137.5,-96 137.5,-96 137.5,-102 131.5,-108 125.5,-108"/>
<text text-anchor="middle" x="87" y="-87.5" font-family="sans" font-size="10.00" fill="#000000">save_pinned_env</text>
</g>
<!-- 1&#45;&gt;2 -->
<g id="edge13" class="edge">
<title>1&#45;&gt;2</title>
<path fill="none" stroke="#c0c0c0" stroke-width="2" d="M57.8413,-143.8314C62.1957,-135.7925 67.4098,-126.1666 72.2169,-117.2918"/>
<polygon fill="#c0c0c0" stroke="#c0c0c0" stroke-width="2" points="75.3408,-118.8732 77.0261,-108.4133 69.1857,-115.5392 75.3408,-118.8732"/>
</g>
<!-- 2&#45;&gt;0 -->
<g id="edge1" class="edge">
<title>2&#45;&gt;0</title>
<path fill="none" stroke="#c0c0c0" stroke-width="2" d="M137.6297,-75.5037C142.4721,-74.2608 147.3202,-73.0711 152,-72 234.3396,-53.1542 330.7253,-36.6339 390.8322,-26.981"/>
<polygon fill="#c0c0c0" stroke="#c0c0c0" stroke-width="2" points="391.5667,-30.4082 400.8899,-25.3756 390.4632,-23.4957 391.5667,-30.4082"/>
</g>
<!-- 3 -->
<g id="node4" class="node">
<title>3</title>
<path fill="none" stroke="#d8a456" stroke-width="2" d="M322,-252C322,-252 236,-252 236,-252 230,-252 224,-246 224,-240 224,-240 224,-228 224,-228 224,-222 230,-216 236,-216 236,-216 322,-216 322,-216 328,-216 334,-222 334,-228 334,-228 334,-240 334,-240 334,-246 328,-252 322,-252"/>
<text text-anchor="middle" x="279" y="-231.5" font-family="sans" font-size="10.00" fill="#000000">get_mut_bind_expr</text>
</g>
<!-- 3&#45;&gt;0 -->
<g id="edge3" class="edge">
<title>3&#45;&gt;0</title>
<path fill="none" stroke="#c0c0c0" stroke-width="2" d="M226.3375,-215.9237C210.1801,-207.618 194.2394,-195.9631 185,-180 176.985,-166.1523 176.4638,-157.5327 185,-144 230.0725,-72.5452 328.0419,-40.7507 391.1309,-27.2451"/>
<polygon fill="#c0c0c0" stroke="#c0c0c0" stroke-width="2" points="391.8512,-30.6703 400.9433,-25.2313 390.4438,-23.8132 391.8512,-30.6703"/>
</g>
<!-- 5 -->
<g id="node6" class="node">
<title>5</title>
<path fill="none" stroke="#59d856" stroke-width="2" d="M351.5,-180C351.5,-180 206.5,-180 206.5,-180 200.5,-180 194.5,-174 194.5,-168 194.5,-168 194.5,-156 194.5,-156 194.5,-150 200.5,-144 206.5,-144 206.5,-144 351.5,-144 351.5,-144 357.5,-144 363.5,-150 363.5,-156 363.5,-156 363.5,-168 363.5,-168 363.5,-174 357.5,-180 351.5,-180"/>
<text text-anchor="middle" x="279" y="-159.5" font-family="sans" font-size="10.00" fill="#000000">bind_expr_filters_Omicron_BA2</text>
</g>
<!-- 3&#45;&gt;5 -->
<g id="edge14" class="edge">
<title>3&#45;&gt;5</title>
<path fill="none" stroke="#c0c0c0" stroke-width="2" d="M279,-215.8314C279,-208.131 279,-198.9743 279,-190.4166"/>
<polygon fill="#c0c0c0" stroke="#c0c0c0" stroke-width="2" points="282.5001,-190.4132 279,-180.4133 275.5001,-190.4133 282.5001,-190.4132"/>
</g>
<!-- 11 -->
<g id="node12" class="node">
<title>11</title>
<path fill="none" stroke="#d87d56" stroke-width="2" d="M610,-180C610,-180 470,-180 470,-180 464,-180 458,-174 458,-168 458,-168 458,-156 458,-156 458,-150 464,-144 470,-144 470,-144 610,-144 610,-144 616,-144 622,-150 622,-156 622,-156 622,-168 622,-168 622,-174 616,-180 610,-180"/>
<text text-anchor="middle" x="540" y="-159.5" font-family="sans" font-size="10.00" fill="#000000">escape_profiles_Omicron_BA2</text>
</g>
<!-- 3&#45;&gt;11 -->
<g id="edge20" class="edge">
<title>3&#45;&gt;11</title>
<path fill="none" stroke="#c0c0c0" stroke-width="2" d="M334.0325,-218.8186C371.9703,-208.353 422.873,-194.3109 464.5817,-182.805"/>
<polygon fill="#c0c0c0" stroke="#c0c0c0" stroke-width="2" points="465.7151,-186.1232 474.4243,-180.0899 463.8536,-179.3752 465.7151,-186.1232"/>
</g>
<!-- 4 -->
<g id="node5" class="node">
<title>4</title>
<path fill="none" stroke="#d8c356" stroke-width="2" d="M990,-108C990,-108 850,-108 850,-108 844,-108 838,-102 838,-96 838,-96 838,-84 838,-84 838,-78 844,-72 850,-72 850,-72 990,-72 990,-72 996,-72 1002,-78 1002,-84 1002,-84 1002,-96 1002,-96 1002,-102 996,-108 990,-108"/>
<text text-anchor="middle" x="920" y="-87.5" font-family="sans" font-size="10.00" fill="#000000">get_early2020_mut_bind_expr</text>
</g>
<!-- 4&#45;&gt;0 -->
<g id="edge12" class="edge">
<title>4&#45;&gt;0</title>
<path fill="none" stroke="#c0c0c0" stroke-width="2" d="M837.8213,-74.3548C833.1488,-73.539 828.5168,-72.7483 824,-72 712.1331,-53.4666 580.8769,-35.4066 507.0738,-25.5868"/>
<polygon fill="#c0c0c0" stroke="#c0c0c0" stroke-width="2" points="507.4227,-22.1025 497.0491,-24.2567 506.5019,-29.0417 507.4227,-22.1025"/>
</g>
<!-- 5&#45;&gt;0 -->
<g id="edge5" class="edge">
<title>5&#45;&gt;0</title>
<path fill="none" stroke="#c0c0c0" stroke-width="2" d="M297.9054,-143.8992C317.5078,-125.3507 349.2533,-95.9207 378,-72 390.0901,-61.9396 403.7622,-51.3624 415.8581,-42.262"/>
<polygon fill="#c0c0c0" stroke="#c0c0c0" stroke-width="2" points="418.0257,-45.0115 423.9416,-36.2221 413.8358,-39.4039 418.0257,-45.0115"/>
</g>
<!-- 6 -->
<g id="node7" class="node">
<title>6</title>
<path fill="none" stroke="#c6d856" stroke-width="2" d="M611.5,-396C611.5,-396 420.5,-396 420.5,-396 414.5,-396 408.5,-390 408.5,-384 408.5,-384 408.5,-372 408.5,-372 408.5,-366 414.5,-360 420.5,-360 420.5,-360 611.5,-360 611.5,-360 617.5,-360 623.5,-366 623.5,-372 623.5,-372 623.5,-384 623.5,-384 623.5,-390 617.5,-396 611.5,-396"/>
<text text-anchor="middle" x="516" y="-375.5" font-family="sans" font-size="10.00" fill="#000000">aggregate_variant_counts_Omicron_BA2</text>
</g>
<!-- 6&#45;&gt;0 -->
<g id="edge4" class="edge">
<title>6&#45;&gt;0</title>
<path fill="none" stroke="#c0c0c0" stroke-width="2" d="M459.309,-359.9302C441.4319,-351.625 423.1881,-339.9689 411,-324 386.1965,-291.5024 392,-274.8816 392,-234 392,-234 392,-234 392,-162 392,-118.7597 414.4945,-73.0187 431.2212,-44.9832"/>
<polygon fill="#c0c0c0" stroke="#c0c0c0" stroke-width="2" points="434.3756,-46.5353 436.6318,-36.1834 428.4126,-42.8688 434.3756,-46.5353"/>
</g>
<!-- 8 -->
<g id="node9" class="node">
<title>8</title>
<path fill="none" stroke="#56d8a2" stroke-width="2" d="M599.5,-324C599.5,-324 432.5,-324 432.5,-324 426.5,-324 420.5,-318 420.5,-312 420.5,-312 420.5,-300 420.5,-300 420.5,-294 426.5,-288 432.5,-288 432.5,-288 599.5,-288 599.5,-288 605.5,-288 611.5,-294 611.5,-300 611.5,-300 611.5,-312 611.5,-312 611.5,-318 605.5,-324 599.5,-324"/>
<text text-anchor="middle" x="516" y="-303.5" font-family="sans" font-size="10.00" fill="#000000">counts_to_cells_ratio_Omicron_BA2</text>
</g>
<!-- 6&#45;&gt;8 -->
<g id="edge16" class="edge">
<title>6&#45;&gt;8</title>
<path fill="none" stroke="#c0c0c0" stroke-width="2" d="M516,-359.8314C516,-352.131 516,-342.9743 516,-334.4166"/>
<polygon fill="#c0c0c0" stroke="#c0c0c0" stroke-width="2" points="519.5001,-334.4132 516,-324.4133 512.5001,-334.4133 519.5001,-334.4132"/>
</g>
<!-- 9 -->
<g id="node10" class="node">
<title>9</title>
<path fill="none" stroke="#56d87b" stroke-width="2" d="M799,-324C799,-324 651,-324 651,-324 645,-324 639,-318 639,-312 639,-312 639,-300 639,-300 639,-294 645,-288 651,-288 651,-288 799,-288 799,-288 805,-288 811,-294 811,-300 811,-300 811,-312 811,-312 811,-318 805,-324 799,-324"/>
<text text-anchor="middle" x="725" y="-303.5" font-family="sans" font-size="10.00" fill="#000000">counts_to_scores_Omicron_BA2</text>
</g>
<!-- 6&#45;&gt;9 -->
<g id="edge17" class="edge">
<title>6&#45;&gt;9</title>
<path fill="none" stroke="#c0c0c0" stroke-width="2" d="M568.4698,-359.9243C597.1655,-350.0387 632.8888,-337.7321 662.96,-327.3726"/>
<polygon fill="#c0c0c0" stroke="#c0c0c0" stroke-width="2" points="664.194,-330.6495 672.5087,-324.0831 661.9139,-324.0312 664.194,-330.6495"/>
</g>
<!-- 7 -->
<g id="node8" class="node">
<title>7</title>
<path fill="none" stroke="#56a2d8" stroke-width="2" d="M584,-468C584,-468 448,-468 448,-468 442,-468 436,-462 436,-456 436,-456 436,-444 436,-444 436,-438 442,-432 448,-432 448,-432 584,-432 584,-432 590,-432 596,-438 596,-444 596,-444 596,-456 596,-456 596,-462 590,-468 584,-468"/>
<text text-anchor="middle" x="516" y="-447.5" font-family="sans" font-size="10.00" fill="#000000">count_variants_Omicron_BA2</text>
</g>
<!-- 7&#45;&gt;6 -->
<g id="edge15" class="edge">
<title>7&#45;&gt;6</title>
<path fill="none" stroke="#c0c0c0" stroke-width="2" d="M516,-431.8314C516,-424.131 516,-414.9743 516,-406.4166"/>
<polygon fill="#c0c0c0" stroke="#c0c0c0" stroke-width="2" points="519.5001,-406.4132 516,-396.4133 512.5001,-406.4133 519.5001,-406.4132"/>
</g>
<!-- 8&#45;&gt;0 -->
<g id="edge9" class="edge">
<title>8&#45;&gt;0</title>
<path fill="none" stroke="#c0c0c0" stroke-width="2" d="M501.0515,-287.7821C493.2163,-277.6599 483.8521,-264.5968 477,-252 460.5937,-221.8388 455.3308,-213.7459 449,-180 440.334,-133.8063 442.9818,-78.8906 445.8655,-46.3234"/>
<polygon fill="#c0c0c0" stroke="#c0c0c0" stroke-width="2" points="449.3675,-46.4686 446.8364,-36.1806 442.3994,-45.8015 449.3675,-46.4686"/>
</g>
<!-- 9&#45;&gt;0 -->
<g id="edge8" class="edge">
<title>9&#45;&gt;0</title>
<path fill="none" stroke="#c0c0c0" stroke-width="2" d="M729.4306,-287.7839C738.9965,-243.5029 756.1512,-129.632 696,-72 669.3744,-46.4895 571.3085,-31.2048 507.0425,-23.7115"/>
<polygon fill="#c0c0c0" stroke="#c0c0c0" stroke-width="2" points="507.3655,-20.2258 497.0345,-22.5754 506.5759,-27.1811 507.3655,-20.2258"/>
</g>
<!-- 10 -->
<g id="node11" class="node">
<title>10</title>
<path fill="none" stroke="#56d8c9" stroke-width="2" d="M693.5,-252C693.5,-252 508.5,-252 508.5,-252 502.5,-252 496.5,-246 496.5,-240 496.5,-240 496.5,-228 496.5,-228 496.5,-222 502.5,-216 508.5,-216 508.5,-216 693.5,-216 693.5,-216 699.5,-216 705.5,-222 705.5,-228 705.5,-228 705.5,-240 705.5,-240 705.5,-246 699.5,-252 693.5,-252"/>
<text text-anchor="middle" x="601" y="-231.5" font-family="sans" font-size="10.00" fill="#000000">call_strong_escape_sites_Omicron_BA2</text>
</g>
<!-- 9&#45;&gt;10 -->
<g id="edge18" class="edge">
<title>9&#45;&gt;10</title>
<path fill="none" stroke="#c0c0c0" stroke-width="2" d="M693.7096,-287.8314C677.7023,-278.5368 658.0414,-267.1208 640.9506,-257.1971"/>
<polygon fill="#c0c0c0" stroke="#c0c0c0" stroke-width="2" points="642.6858,-254.1575 632.2804,-252.1628 639.1708,-260.211 642.6858,-254.1575"/>
</g>
<!-- 9&#45;&gt;11 -->
<g id="edge21" class="edge">
<title>9&#45;&gt;11</title>
<path fill="none" stroke="#c0c0c0" stroke-width="2" d="M638.9273,-289.0854C572.816,-275.6804 491.9572,-258.2079 487,-252 470.7464,-231.6455 489.4212,-205.7962 508.9435,-187.0276"/>
<polygon fill="#c0c0c0" stroke="#c0c0c0" stroke-width="2" points="511.382,-189.5404 516.3961,-180.2072 506.6561,-184.3765 511.382,-189.5404"/>
</g>
<!-- 12 -->
<g id="node13" class="node">
<title>12</title>
<path fill="none" stroke="#9fd856" stroke-width="2" d="M936,-252C936,-252 812,-252 812,-252 806,-252 800,-246 800,-240 800,-240 800,-228 800,-228 800,-222 806,-216 812,-216 812,-216 936,-216 936,-216 942,-216 948,-222 948,-228 948,-228 948,-240 948,-240 948,-246 942,-252 936,-252"/>
<text text-anchor="middle" x="874" y="-231.5" font-family="sans" font-size="10.00" fill="#000000">output_pdbs_Omicron_BA2</text>
</g>
<!-- 9&#45;&gt;12 -->
<g id="edge22" class="edge">
<title>9&#45;&gt;12</title>
<path fill="none" stroke="#c0c0c0" stroke-width="2" d="M762.599,-287.8314C782.3497,-278.2874 806.7297,-266.5065 827.6417,-256.4013"/>
<polygon fill="#c0c0c0" stroke="#c0c0c0" stroke-width="2" points="829.1903,-259.5403 836.6714,-252.038 826.1447,-253.2376 829.1903,-259.5403"/>
</g>
<!-- 13 -->
<g id="node14" class="node">
<title>13</title>
<path fill="none" stroke="#567bd8" stroke-width="2" d="M655.5,-108C655.5,-108 508.5,-108 508.5,-108 502.5,-108 496.5,-102 496.5,-96 496.5,-96 496.5,-84 496.5,-84 496.5,-78 502.5,-72 508.5,-72 508.5,-72 655.5,-72 655.5,-72 661.5,-72 667.5,-78 667.5,-84 667.5,-84 667.5,-96 667.5,-96 667.5,-102 661.5,-108 655.5,-108"/>
<text text-anchor="middle" x="582" y="-87.5" font-family="sans" font-size="10.00" fill="#000000">make_supp_data_Omicron_BA2</text>
</g>
<!-- 9&#45;&gt;13 -->
<g id="edge24" class="edge">
<title>9&#45;&gt;13</title>
<path fill="none" stroke="#c0c0c0" stroke-width="2" d="M726.5328,-287.7316C727.3336,-268.787 726.3417,-238.8035 715,-216 693.443,-172.6576 650.5113,-136.3173 619.2382,-113.9719"/>
<polygon fill="#c0c0c0" stroke="#c0c0c0" stroke-width="2" points="620.9566,-110.903 610.7542,-108.0463 616.9484,-116.6419 620.9566,-110.903"/>
</g>
<!-- 10&#45;&gt;0 -->
<g id="edge10" class="edge">
<title>10&#45;&gt;0</title>
<path fill="none" stroke="#c0c0c0" stroke-width="2" d="M621.3765,-215.9826C654.6395,-184.4061 713.4207,-118.0543 677,-72 656.2183,-45.7214 567.7847,-30.9034 507.363,-23.6773"/>
<polygon fill="#c0c0c0" stroke="#c0c0c0" stroke-width="2" points="507.5124,-20.1713 497.1764,-22.4987 506.7078,-27.1249 507.5124,-20.1713"/>
</g>
<!-- 10&#45;&gt;11 -->
<g id="edge19" class="edge">
<title>10&#45;&gt;11</title>
<path fill="none" stroke="#c0c0c0" stroke-width="2" d="M585.6071,-215.8314C578.5096,-207.454 569.952,-197.3531 562.176,-188.1749"/>
<polygon fill="#c0c0c0" stroke="#c0c0c0" stroke-width="2" points="564.7348,-185.7807 555.6001,-180.4133 559.3939,-190.3056 564.7348,-185.7807"/>
</g>
<!-- 11&#45;&gt;0 -->
<g id="edge2" class="edge">
<title>11&#45;&gt;0</title>
<path fill="none" stroke="#c0c0c0" stroke-width="2" d="M518.6815,-143.8224C508.1363,-134.0142 495.8139,-121.2271 487,-108 474.1445,-88.7077 464.1837,-64.3592 457.6914,-45.8539"/>
<polygon fill="#c0c0c0" stroke="#c0c0c0" stroke-width="2" points="460.9614,-44.5975 454.445,-36.2436 454.3295,-46.8378 460.9614,-44.5975"/>
</g>
<!-- 11&#45;&gt;13 -->
<g id="edge23" class="edge">
<title>11&#45;&gt;13</title>
<path fill="none" stroke="#c0c0c0" stroke-width="2" d="M550.5984,-143.8314C555.2877,-135.7925 560.9028,-126.1666 566.0798,-117.2918"/>
<polygon fill="#c0c0c0" stroke="#c0c0c0" stroke-width="2" points="569.2434,-118.8146 571.2589,-108.4133 563.1969,-115.2875 569.2434,-118.8146"/>
</g>
<!-- 12&#45;&gt;0 -->
<g id="edge7" class="edge">
<title>12&#45;&gt;0</title>
<path fill="none" stroke="#c0c0c0" stroke-width="2" d="M869.7949,-215.8805C860.8319,-181.6441 836.4175,-107.6925 786,-72 742.1866,-40.9828 591.5712,-26.8208 507.288,-21.1927"/>
<polygon fill="#c0c0c0" stroke="#c0c0c0" stroke-width="2" points="507.3061,-17.6866 497.1006,-20.5324 506.8532,-24.6719 507.3061,-17.6866"/>
</g>
<!-- 13&#45;&gt;0 -->
<g id="edge11" class="edge">
<title>13&#45;&gt;0</title>
<path fill="none" stroke="#c0c0c0" stroke-width="2" d="M548.4385,-71.8314C531.1119,-62.4516 509.7942,-50.9112 491.3464,-40.9244"/>
<polygon fill="#c0c0c0" stroke="#c0c0c0" stroke-width="2" points="493.0111,-37.8457 482.5508,-36.1628 489.6786,-44.0015 493.0111,-37.8457"/>
</g>
</g>
</svg>
