<?xml version="1.0" encoding="UTF-8" standalone="no"?>
<!DOCTYPE svg PUBLIC "-//W3C//DTD SVG 1.1//EN"
 "http://www.w3.org/Graphics/SVG/1.1/DTD/svg11.dtd">
<!-- Generated by graphviz version 2.40.1 (0)
 -->
<!-- Title: snakemake_dag Pages: 1 -->
<svg width="2397pt" height="476pt"
 viewBox="0.00 0.00 2396.50 476.00" xmlns="http://www.w3.org/2000/svg" xmlns:xlink="http://www.w3.org/1999/xlink">
<g id="graph0" class="graph" transform="scale(1 1) rotate(0) translate(4 472)">
<title>snakemake_dag</title>
<polygon fill="#ffffff" stroke="transparent" points="-4,4 -4,-472 2392.5,-472 2392.5,4 -4,4"/>
<!-- 0 -->
<g id="node1" class="node">
<title>0</title>
<path fill="none" stroke="#d85656" stroke-width="2" d="M1251,-36C1251,-36 1179,-36 1179,-36 1173,-36 1167,-30 1167,-24 1167,-24 1167,-12 1167,-12 1167,-6 1173,0 1179,0 1179,0 1251,0 1251,0 1257,0 1263,-6 1263,-12 1263,-12 1263,-24 1263,-24 1263,-30 1257,-36 1251,-36"/>
<text text-anchor="middle" x="1215" y="-15.5" font-family="sans" font-size="10.00" fill="#000000">make_summary</text>
</g>
<!-- 1 -->
<g id="node2" class="node">
<title>1</title>
<path fill="none" stroke="#d8b456" stroke-width="2" d="M84,-180C84,-180 12,-180 12,-180 6,-180 0,-174 0,-168 0,-168 0,-156 0,-156 0,-150 6,-144 12,-144 12,-144 84,-144 84,-144 90,-144 96,-150 96,-156 96,-156 96,-168 96,-168 96,-174 90,-180 84,-180"/>
<text text-anchor="middle" x="48" y="-159.5" font-family="sans" font-size="10.00" fill="#000000">make_rulegraph</text>
</g>
<!-- 1&#45;&gt;0 -->
<g id="edge5" class="edge">
<title>1&#45;&gt;0</title>
<path fill="none" stroke="#c0c0c0" stroke-width="2" d="M35.4381,-143.9542C23.0653,-123.7694 8.4885,-91.3721 27,-72 66.4,-30.7684 922.9717,-20.4829 1156.5957,-18.4404"/>
<polygon fill="#c0c0c0" stroke="#c0c0c0" stroke-width="2" points="1156.9513,-21.9375 1166.921,-18.352 1156.8913,-14.9378 1156.9513,-21.9375"/>
</g>
<!-- 2 -->
<g id="node3" class="node">
<title>2</title>
<path fill="none" stroke="#bed856" stroke-width="2" d="M125.5,-108C125.5,-108 48.5,-108 48.5,-108 42.5,-108 36.5,-102 36.5,-96 36.5,-96 36.5,-84 36.5,-84 36.5,-78 42.5,-72 48.5,-72 48.5,-72 125.5,-72 125.5,-72 131.5,-72 137.5,-78 137.5,-84 137.5,-84 137.5,-96 137.5,-96 137.5,-102 131.5,-108 125.5,-108"/>
<text text-anchor="middle" x="87" y="-87.5" font-family="sans" font-size="10.00" fill="#000000">save_pinned_env</text>
</g>
<!-- 1&#45;&gt;2 -->
<g id="edge30" class="edge">
<title>1&#45;&gt;2</title>
<path fill="none" stroke="#c0c0c0" stroke-width="2" d="M57.8413,-143.8314C62.1957,-135.7925 67.4098,-126.1666 72.2169,-117.2918"/>
<polygon fill="#c0c0c0" stroke="#c0c0c0" stroke-width="2" points="75.3408,-118.8732 77.0261,-108.4133 69.1857,-115.5392 75.3408,-118.8732"/>
</g>
<!-- 2&#45;&gt;0 -->
<g id="edge9" class="edge">
<title>2&#45;&gt;0</title>
<path fill="none" stroke="#c0c0c0" stroke-width="2" d="M137.5041,-74.8602C142.3724,-73.7501 147.2608,-72.767 152,-72 347.9097,-40.2928 963.4269,-23.7771 1156.4815,-19.2821"/>
<polygon fill="#c0c0c0" stroke="#c0c0c0" stroke-width="2" points="1156.7866,-22.7761 1166.7032,-19.0462 1156.6251,-15.778 1156.7866,-22.7761"/>
</g>
<!-- 3 -->
<g id="node4" class="node">
<title>3</title>
<path fill="none" stroke="#5682d8" stroke-width="2" d="M629,-252C629,-252 543,-252 543,-252 537,-252 531,-246 531,-240 531,-240 531,-228 531,-228 531,-222 537,-216 543,-216 543,-216 629,-216 629,-216 635,-216 641,-222 641,-228 641,-228 641,-240 641,-240 641,-246 635,-252 629,-252"/>
<text text-anchor="middle" x="586" y="-231.5" font-family="sans" font-size="10.00" fill="#000000">get_mut_bind_expr</text>
</g>
<!-- 3&#45;&gt;0 -->
<g id="edge27" class="edge">
<title>3&#45;&gt;0</title>
<path fill="none" stroke="#c0c0c0" stroke-width="2" d="M549.5533,-215.9773C492.987,-185.7627 395.2844,-123.1698 443,-72 467.2847,-45.9573 980.9052,-26.0113 1156.64,-19.9273"/>
<polygon fill="#c0c0c0" stroke="#c0c0c0" stroke-width="2" points="1156.8594,-23.4219 1166.7332,-19.5803 1156.6189,-16.4261 1156.8594,-23.4219"/>
</g>
<!-- 6 -->
<g id="node7" class="node">
<title>6</title>
<path fill="none" stroke="#56d89a" stroke-width="2" d="M794.5,-108C794.5,-108 649.5,-108 649.5,-108 643.5,-108 637.5,-102 637.5,-96 637.5,-96 637.5,-84 637.5,-84 637.5,-78 643.5,-72 649.5,-72 649.5,-72 794.5,-72 794.5,-72 800.5,-72 806.5,-78 806.5,-84 806.5,-84 806.5,-96 806.5,-96 806.5,-102 800.5,-108 794.5,-108"/>
<text text-anchor="middle" x="722" y="-87.5" font-family="sans" font-size="10.00" fill="#000000">bind_expr_filters_Omicron_BA2</text>
</g>
<!-- 3&#45;&gt;6 -->
<g id="edge31" class="edge">
<title>3&#45;&gt;6</title>
<path fill="none" stroke="#c0c0c0" stroke-width="2" d="M603.2245,-215.7623C627.1366,-190.4436 670.5106,-144.5182 697.7041,-115.7251"/>
<polygon fill="#c0c0c0" stroke="#c0c0c0" stroke-width="2" points="700.5937,-117.763 704.9154,-108.0896 695.5045,-112.9566 700.5937,-117.763"/>
</g>
<!-- 12 -->
<g id="node13" class="node">
<title>12</title>
<path fill="none" stroke="#ced856" stroke-width="2" d="M895,-180C895,-180 755,-180 755,-180 749,-180 743,-174 743,-168 743,-168 743,-156 743,-156 743,-150 749,-144 755,-144 755,-144 895,-144 895,-144 901,-144 907,-150 907,-156 907,-156 907,-168 907,-168 907,-174 901,-180 895,-180"/>
<text text-anchor="middle" x="825" y="-159.5" font-family="sans" font-size="10.00" fill="#000000">escape_profiles_Omicron_BA2</text>
</g>
<!-- 3&#45;&gt;12 -->
<g id="edge37" class="edge">
<title>3&#45;&gt;12</title>
<path fill="none" stroke="#c0c0c0" stroke-width="2" d="M641.1315,-217.3913C675.028,-207.1798 718.7733,-194.0014 755.0902,-183.0607"/>
<polygon fill="#c0c0c0" stroke="#c0c0c0" stroke-width="2" points="756.5567,-186.2743 765.1221,-180.0385 754.5375,-179.5719 756.5567,-186.2743"/>
</g>
<!-- 15 -->
<g id="node16" class="node">
<title>15</title>
<path fill="none" stroke="#56d8c9" stroke-width="2" d="M607.5,-108C607.5,-108 464.5,-108 464.5,-108 458.5,-108 452.5,-102 452.5,-96 452.5,-96 452.5,-84 452.5,-84 452.5,-78 458.5,-72 464.5,-72 464.5,-72 607.5,-72 607.5,-72 613.5,-72 619.5,-78 619.5,-84 619.5,-84 619.5,-96 619.5,-96 619.5,-102 613.5,-108 607.5,-108"/>
<text text-anchor="middle" x="536" y="-87.5" font-family="sans" font-size="10.00" fill="#000000">bind_expr_filters_Wuhan_Hu_1</text>
</g>
<!-- 3&#45;&gt;15 -->
<g id="edge42" class="edge">
<title>3&#45;&gt;15</title>
<path fill="none" stroke="#c0c0c0" stroke-width="2" d="M579.6675,-215.7623C571.0641,-190.9846 555.6081,-146.4714 545.5812,-117.5939"/>
<polygon fill="#c0c0c0" stroke="#c0c0c0" stroke-width="2" points="548.8677,-116.3883 542.2811,-108.0896 542.2549,-118.6844 548.8677,-116.3883"/>
</g>
<!-- 21 -->
<g id="node22" class="node">
<title>21</title>
<path fill="none" stroke="#d8c356" stroke-width="2" d="M1430.5,-180C1430.5,-180 1293.5,-180 1293.5,-180 1287.5,-180 1281.5,-174 1281.5,-168 1281.5,-168 1281.5,-156 1281.5,-156 1281.5,-150 1287.5,-144 1293.5,-144 1293.5,-144 1430.5,-144 1430.5,-144 1436.5,-144 1442.5,-150 1442.5,-156 1442.5,-156 1442.5,-168 1442.5,-168 1442.5,-174 1436.5,-180 1430.5,-180"/>
<text text-anchor="middle" x="1362" y="-159.5" font-family="sans" font-size="10.00" fill="#000000">escape_profiles_Wuhan_Hu_1</text>
</g>
<!-- 3&#45;&gt;21 -->
<g id="edge47" class="edge">
<title>3&#45;&gt;21</title>
<path fill="none" stroke="#c0c0c0" stroke-width="2" d="M641.3473,-217.7082C644.2616,-217.078 647.1585,-216.5022 650,-216 657.5705,-214.662 1081.261,-182.9486 1271.3762,-168.7573"/>
<polygon fill="#c0c0c0" stroke="#c0c0c0" stroke-width="2" points="1271.6414,-172.2474 1281.3532,-168.0127 1271.1204,-165.2668 1271.6414,-172.2474"/>
</g>
<!-- 4 -->
<g id="node5" class="node">
<title>4</title>
<path fill="none" stroke="#d8a456" stroke-width="2" d="M1860.5,-252C1860.5,-252 1739.5,-252 1739.5,-252 1733.5,-252 1727.5,-246 1727.5,-240 1727.5,-240 1727.5,-228 1727.5,-228 1727.5,-222 1733.5,-216 1739.5,-216 1739.5,-216 1860.5,-216 1860.5,-216 1866.5,-216 1872.5,-222 1872.5,-228 1872.5,-228 1872.5,-240 1872.5,-240 1872.5,-246 1866.5,-252 1860.5,-252"/>
<text text-anchor="middle" x="1800" y="-231.5" font-family="sans" font-size="10.00" fill="#000000">get_mut_bind_expr_SARSr</text>
</g>
<!-- 4&#45;&gt;0 -->
<g id="edge4" class="edge">
<title>4&#45;&gt;0</title>
<path fill="none" stroke="#c0c0c0" stroke-width="2" d="M1769.7131,-215.9668C1756.1005,-206.6333 1740.7227,-194.2134 1730,-180 1698.885,-138.7557 1728.0386,-103.3859 1687,-72 1654.6927,-47.2917 1391.9509,-28.6003 1273.06,-21.3226"/>
<polygon fill="#c0c0c0" stroke="#c0c0c0" stroke-width="2" points="1273.2337,-17.8268 1263.0403,-20.7155 1272.8103,-24.814 1273.2337,-17.8268"/>
</g>
<!-- 24 -->
<g id="node25" class="node">
<title>24</title>
<path fill="none" stroke="#56d0d8" stroke-width="2" d="M1861,-180C1861,-180 1751,-180 1751,-180 1745,-180 1739,-174 1739,-168 1739,-168 1739,-156 1739,-156 1739,-150 1745,-144 1751,-144 1751,-144 1861,-144 1861,-144 1867,-144 1873,-150 1873,-156 1873,-156 1873,-168 1873,-168 1873,-174 1867,-180 1861,-180"/>
<text text-anchor="middle" x="1806" y="-159.5" font-family="sans" font-size="10.00" fill="#000000">bind_expr_filters_SARS1</text>
</g>
<!-- 4&#45;&gt;24 -->
<g id="edge53" class="edge">
<title>4&#45;&gt;24</title>
<path fill="none" stroke="#c0c0c0" stroke-width="2" d="M1801.5141,-215.8314C1802.1558,-208.131 1802.9188,-198.9743 1803.6319,-190.4166"/>
<polygon fill="#c0c0c0" stroke="#c0c0c0" stroke-width="2" points="1807.1229,-190.6694 1804.4656,-180.4133 1800.1471,-190.088 1807.1229,-190.6694"/>
</g>
<!-- 30 -->
<g id="node31" class="node">
<title>30</title>
<path fill="none" stroke="#5692d8" stroke-width="2" d="M2122.5,-180C2122.5,-180 2017.5,-180 2017.5,-180 2011.5,-180 2005.5,-174 2005.5,-168 2005.5,-168 2005.5,-156 2005.5,-156 2005.5,-150 2011.5,-144 2017.5,-144 2017.5,-144 2122.5,-144 2122.5,-144 2128.5,-144 2134.5,-150 2134.5,-156 2134.5,-156 2134.5,-168 2134.5,-168 2134.5,-174 2128.5,-180 2122.5,-180"/>
<text text-anchor="middle" x="2070" y="-159.5" font-family="sans" font-size="10.00" fill="#000000">escape_profiles_SARS1</text>
</g>
<!-- 4&#45;&gt;30 -->
<g id="edge60" class="edge">
<title>4&#45;&gt;30</title>
<path fill="none" stroke="#c0c0c0" stroke-width="2" d="M1867.7839,-215.9243C1906.7478,-205.5339 1955.7411,-192.4691 1995.7439,-181.8016"/>
<polygon fill="#c0c0c0" stroke="#c0c0c0" stroke-width="2" points="1996.6844,-185.1732 2005.4449,-179.2147 1994.8807,-178.4096 1996.6844,-185.1732"/>
</g>
<!-- 5 -->
<g id="node6" class="node">
<title>5</title>
<path fill="none" stroke="#d8d356" stroke-width="2" d="M384,-108C384,-108 244,-108 244,-108 238,-108 232,-102 232,-96 232,-96 232,-84 232,-84 232,-78 238,-72 244,-72 244,-72 384,-72 384,-72 390,-72 396,-78 396,-84 396,-84 396,-96 396,-96 396,-102 390,-108 384,-108"/>
<text text-anchor="middle" x="314" y="-87.5" font-family="sans" font-size="10.00" fill="#000000">get_early2020_mut_bind_expr</text>
</g>
<!-- 5&#45;&gt;0 -->
<g id="edge7" class="edge">
<title>5&#45;&gt;0</title>
<path fill="none" stroke="#c0c0c0" stroke-width="2" d="M396.1182,-73.9414C400.8062,-73.2309 405.458,-72.5761 410,-72 688.0288,-36.7354 1023.1942,-23.6083 1156.3502,-19.5562"/>
<polygon fill="#c0c0c0" stroke="#c0c0c0" stroke-width="2" points="1156.8276,-23.0436 1166.7187,-19.2467 1156.6186,-16.0467 1156.8276,-23.0436"/>
</g>
<!-- 6&#45;&gt;0 -->
<g id="edge19" class="edge">
<title>6&#45;&gt;0</title>
<path fill="none" stroke="#c0c0c0" stroke-width="2" d="M806.7469,-74.3403C811.5654,-73.5282 816.3421,-72.7423 821,-72 940.0853,-53.0227 1080.0745,-34.8045 1157.0125,-25.1431"/>
<polygon fill="#c0c0c0" stroke="#c0c0c0" stroke-width="2" points="1157.499,-28.6096 1166.9866,-23.8942 1156.6292,-21.6638 1157.499,-28.6096"/>
</g>
<!-- 7 -->
<g id="node8" class="node">
<title>7</title>
<path fill="none" stroke="#56d87b" stroke-width="2" d="M385.5,-396C385.5,-396 194.5,-396 194.5,-396 188.5,-396 182.5,-390 182.5,-384 182.5,-384 182.5,-372 182.5,-372 182.5,-366 188.5,-360 194.5,-360 194.5,-360 385.5,-360 385.5,-360 391.5,-360 397.5,-366 397.5,-372 397.5,-372 397.5,-384 397.5,-384 397.5,-390 391.5,-396 385.5,-396"/>
<text text-anchor="middle" x="290" y="-375.5" font-family="sans" font-size="10.00" fill="#000000">aggregate_variant_counts_Omicron_BA2</text>
</g>
<!-- 7&#45;&gt;0 -->
<g id="edge17" class="edge">
<title>7&#45;&gt;0</title>
<path fill="none" stroke="#c0c0c0" stroke-width="2" d="M233.309,-359.9302C215.4319,-351.625 197.1881,-339.9689 185,-324 160.1965,-291.5024 166,-274.8816 166,-234 166,-234 166,-234 166,-162 166,-119.2408 165.484,-97.2387 200,-72 238.7848,-43.6398 946.4076,-24.4464 1156.6005,-19.3525"/>
<polygon fill="#c0c0c0" stroke="#c0c0c0" stroke-width="2" points="1156.902,-22.8463 1166.8149,-19.1066 1156.7335,-15.8484 1156.902,-22.8463"/>
</g>
<!-- 9 -->
<g id="node10" class="node">
<title>9</title>
<path fill="none" stroke="#5663d8" stroke-width="2" d="M373.5,-324C373.5,-324 206.5,-324 206.5,-324 200.5,-324 194.5,-318 194.5,-312 194.5,-312 194.5,-300 194.5,-300 194.5,-294 200.5,-288 206.5,-288 206.5,-288 373.5,-288 373.5,-288 379.5,-288 385.5,-294 385.5,-300 385.5,-300 385.5,-312 385.5,-312 385.5,-318 379.5,-324 373.5,-324"/>
<text text-anchor="middle" x="290" y="-303.5" font-family="sans" font-size="10.00" fill="#000000">counts_to_cells_ratio_Omicron_BA2</text>
</g>
<!-- 7&#45;&gt;9 -->
<g id="edge33" class="edge">
<title>7&#45;&gt;9</title>
<path fill="none" stroke="#c0c0c0" stroke-width="2" d="M290,-359.8314C290,-352.131 290,-342.9743 290,-334.4166"/>
<polygon fill="#c0c0c0" stroke="#c0c0c0" stroke-width="2" points="293.5001,-334.4132 290,-324.4133 286.5001,-334.4133 293.5001,-334.4132"/>
</g>
<!-- 10 -->
<g id="node11" class="node">
<title>10</title>
<path fill="none" stroke="#61d856" stroke-width="2" d="M990,-324C990,-324 842,-324 842,-324 836,-324 830,-318 830,-312 830,-312 830,-300 830,-300 830,-294 836,-288 842,-288 842,-288 990,-288 990,-288 996,-288 1002,-294 1002,-300 1002,-300 1002,-312 1002,-312 1002,-318 996,-324 990,-324"/>
<text text-anchor="middle" x="916" y="-303.5" font-family="sans" font-size="10.00" fill="#000000">counts_to_scores_Omicron_BA2</text>
</g>
<!-- 7&#45;&gt;10 -->
<g id="edge34" class="edge">
<title>7&#45;&gt;10</title>
<path fill="none" stroke="#c0c0c0" stroke-width="2" d="M397.6132,-365.6228C516.3801,-351.9627 705.7839,-330.1782 819.7845,-317.0663"/>
<polygon fill="#c0c0c0" stroke="#c0c0c0" stroke-width="2" points="820.3619,-320.5231 829.8964,-315.9033 819.562,-313.5689 820.3619,-320.5231"/>
</g>
<!-- 8 -->
<g id="node9" class="node">
<title>8</title>
<path fill="none" stroke="#d88556" stroke-width="2" d="M358,-468C358,-468 222,-468 222,-468 216,-468 210,-462 210,-456 210,-456 210,-444 210,-444 210,-438 216,-432 222,-432 222,-432 358,-432 358,-432 364,-432 370,-438 370,-444 370,-444 370,-456 370,-456 370,-462 364,-468 358,-468"/>
<text text-anchor="middle" x="290" y="-447.5" font-family="sans" font-size="10.00" fill="#000000">count_variants_Omicron_BA2</text>
</g>
<!-- 8&#45;&gt;7 -->
<g id="edge32" class="edge">
<title>8&#45;&gt;7</title>
<path fill="none" stroke="#c0c0c0" stroke-width="2" d="M290,-431.8314C290,-424.131 290,-414.9743 290,-406.4166"/>
<polygon fill="#c0c0c0" stroke="#c0c0c0" stroke-width="2" points="293.5001,-406.4132 290,-396.4133 286.5001,-406.4133 293.5001,-406.4132"/>
</g>
<!-- 9&#45;&gt;0 -->
<g id="edge29" class="edge">
<title>9&#45;&gt;0</title>
<path fill="none" stroke="#c0c0c0" stroke-width="2" d="M274.735,-287.7527C240.3287,-244.3839 164.1594,-134.1308 223,-72 255.2555,-37.9409 949.2503,-22.7694 1156.8474,-18.9825"/>
<polygon fill="#c0c0c0" stroke="#c0c0c0" stroke-width="2" points="1157.0046,-22.4803 1166.9398,-18.8004 1156.8783,-15.4814 1157.0046,-22.4803"/>
</g>
<!-- 10&#45;&gt;0 -->
<g id="edge15" class="edge">
<title>10&#45;&gt;0</title>
<path fill="none" stroke="#c0c0c0" stroke-width="2" d="M962.0559,-287.8449C1007.769,-267.7104 1077.0501,-231.178 1120,-180 1153.2123,-140.425 1135.0019,-115.4205 1163,-72 1169.6007,-61.7634 1178.3248,-51.7945 1186.7375,-43.2657"/>
<polygon fill="#c0c0c0" stroke="#c0c0c0" stroke-width="2" points="1189.2889,-45.666 1193.9892,-36.1708 1184.3936,-40.6624 1189.2889,-45.666"/>
</g>
<!-- 11 -->
<g id="node12" class="node">
<title>11</title>
<path fill="none" stroke="#70d856" stroke-width="2" d="M856.5,-252C856.5,-252 671.5,-252 671.5,-252 665.5,-252 659.5,-246 659.5,-240 659.5,-240 659.5,-228 659.5,-228 659.5,-222 665.5,-216 671.5,-216 671.5,-216 856.5,-216 856.5,-216 862.5,-216 868.5,-222 868.5,-228 868.5,-228 868.5,-240 868.5,-240 868.5,-246 862.5,-252 856.5,-252"/>
<text text-anchor="middle" x="764" y="-231.5" font-family="sans" font-size="10.00" fill="#000000">call_strong_escape_sites_Omicron_BA2</text>
</g>
<!-- 10&#45;&gt;11 -->
<g id="edge35" class="edge">
<title>10&#45;&gt;11</title>
<path fill="none" stroke="#c0c0c0" stroke-width="2" d="M877.644,-287.8314C857.4956,-278.2874 832.6248,-266.5065 811.2917,-256.4013"/>
<polygon fill="#c0c0c0" stroke="#c0c0c0" stroke-width="2" points="812.6159,-253.1558 802.0802,-252.038 809.6193,-259.482 812.6159,-253.1558"/>
</g>
<!-- 10&#45;&gt;12 -->
<g id="edge38" class="edge">
<title>10&#45;&gt;12</title>
<path fill="none" stroke="#c0c0c0" stroke-width="2" d="M910.555,-287.7564C904.4062,-268.8321 893.2361,-238.865 878,-216 871.183,-205.7697 862.2672,-195.8025 853.6981,-187.2733"/>
<polygon fill="#c0c0c0" stroke="#c0c0c0" stroke-width="2" points="855.9528,-184.5857 846.3185,-180.1776 851.101,-189.6316 855.9528,-184.5857"/>
</g>
<!-- 13 -->
<g id="node14" class="node">
<title>13</title>
<path fill="none" stroke="#56a2d8" stroke-width="2" d="M1099,-180C1099,-180 975,-180 975,-180 969,-180 963,-174 963,-168 963,-168 963,-156 963,-156 963,-150 969,-144 975,-144 975,-144 1099,-144 1099,-144 1105,-144 1111,-150 1111,-156 1111,-156 1111,-168 1111,-168 1111,-174 1105,-180 1099,-180"/>
<text text-anchor="middle" x="1037" y="-159.5" font-family="sans" font-size="10.00" fill="#000000">output_pdbs_Omicron_BA2</text>
</g>
<!-- 10&#45;&gt;13 -->
<g id="edge39" class="edge">
<title>10&#45;&gt;13</title>
<path fill="none" stroke="#c0c0c0" stroke-width="2" d="M931.3247,-287.7623C952.5085,-262.5518 990.8601,-216.9103 1015.0728,-188.0952"/>
<polygon fill="#c0c0c0" stroke="#c0c0c0" stroke-width="2" points="1018.0461,-189.9973 1021.7997,-180.0896 1012.6869,-185.494 1018.0461,-189.9973"/>
</g>
<!-- 14 -->
<g id="node15" class="node">
<title>14</title>
<path fill="none" stroke="#d87556" stroke-width="2" d="M1060.5,-108C1060.5,-108 913.5,-108 913.5,-108 907.5,-108 901.5,-102 901.5,-96 901.5,-96 901.5,-84 901.5,-84 901.5,-78 907.5,-72 913.5,-72 913.5,-72 1060.5,-72 1060.5,-72 1066.5,-72 1072.5,-78 1072.5,-84 1072.5,-84 1072.5,-96 1072.5,-96 1072.5,-102 1066.5,-108 1060.5,-108"/>
<text text-anchor="middle" x="987" y="-87.5" font-family="sans" font-size="10.00" fill="#000000">make_supp_data_Omicron_BA2</text>
</g>
<!-- 10&#45;&gt;14 -->
<g id="edge40" class="edge">
<title>10&#45;&gt;14</title>
<path fill="none" stroke="#c0c0c0" stroke-width="2" d="M918.3232,-287.9294C922.6665,-257.3806 933.4879,-193.9755 954,-144 957.7989,-134.7443 963.0708,-125.2406 968.2869,-116.8365"/>
<polygon fill="#c0c0c0" stroke="#c0c0c0" stroke-width="2" points="971.3709,-118.5125 973.8529,-108.2125 965.4894,-114.7166 971.3709,-118.5125"/>
</g>
<!-- 11&#45;&gt;0 -->
<g id="edge13" class="edge">
<title>11&#45;&gt;0</title>
<path fill="none" stroke="#c0c0c0" stroke-width="2" d="M749.1869,-215.8962C735.4964,-196.8181 719.32,-166.4773 734,-144 755.7643,-110.6756 783.2987,-130.6897 816,-108 834.3343,-95.2788 831.1386,-82.1735 851,-72 903.1654,-45.2796 1067.5449,-29.1217 1156.484,-22.1119"/>
<polygon fill="#c0c0c0" stroke="#c0c0c0" stroke-width="2" points="1156.982,-25.5839 1166.6819,-21.3222 1156.4415,-18.6048 1156.982,-25.5839"/>
</g>
<!-- 11&#45;&gt;12 -->
<g id="edge36" class="edge">
<title>11&#45;&gt;12</title>
<path fill="none" stroke="#c0c0c0" stroke-width="2" d="M779.3929,-215.8314C786.4904,-207.454 795.048,-197.3531 802.824,-188.1749"/>
<polygon fill="#c0c0c0" stroke="#c0c0c0" stroke-width="2" points="805.6061,-190.3056 809.3999,-180.4133 800.2652,-185.7807 805.6061,-190.3056"/>
</g>
<!-- 12&#45;&gt;0 -->
<g id="edge8" class="edge">
<title>12&#45;&gt;0</title>
<path fill="none" stroke="#c0c0c0" stroke-width="2" d="M833.4166,-143.826C844.1286,-122.8834 864.6979,-89.1562 893,-72 936.4052,-45.6886 1076.6672,-29.763 1157.027,-22.5688"/>
<polygon fill="#c0c0c0" stroke="#c0c0c0" stroke-width="2" points="1157.3414,-26.0547 1166.9969,-21.6935 1156.7291,-19.0815 1157.3414,-26.0547"/>
</g>
<!-- 12&#45;&gt;14 -->
<g id="edge41" class="edge">
<title>12&#45;&gt;14</title>
<path fill="none" stroke="#c0c0c0" stroke-width="2" d="M865.8794,-143.8314C887.546,-134.2018 914.3363,-122.295 937.2078,-112.1299"/>
<polygon fill="#c0c0c0" stroke="#c0c0c0" stroke-width="2" points="938.6979,-115.2978 946.4145,-108.038 935.8549,-108.9011 938.6979,-115.2978"/>
</g>
<!-- 13&#45;&gt;0 -->
<g id="edge25" class="edge">
<title>13&#45;&gt;0</title>
<path fill="none" stroke="#c0c0c0" stroke-width="2" d="M1052.3359,-143.7384C1069.0146,-124.5284 1097.0475,-94.0785 1125,-72 1139.3439,-60.6703 1156.2655,-49.9283 1171.5423,-41.053"/>
<polygon fill="#c0c0c0" stroke="#c0c0c0" stroke-width="2" points="1173.3603,-44.0454 1180.315,-36.0527 1169.894,-37.9639 1173.3603,-44.0454"/>
</g>
<!-- 14&#45;&gt;0 -->
<g id="edge2" class="edge">
<title>14&#45;&gt;0</title>
<path fill="none" stroke="#c0c0c0" stroke-width="2" d="M1044.2397,-71.9243C1078.6966,-61.0432 1122.4417,-47.2289 1157.0289,-36.3067"/>
<polygon fill="#c0c0c0" stroke="#c0c0c0" stroke-width="2" points="1158.5041,-39.5112 1166.986,-33.1623 1156.3962,-32.8362 1158.5041,-39.5112"/>
</g>
<!-- 15&#45;&gt;0 -->
<g id="edge21" class="edge">
<title>15&#45;&gt;0</title>
<path fill="none" stroke="#c0c0c0" stroke-width="2" d="M619.6756,-73.2548C622.4806,-72.8129 625.2613,-72.3929 628,-72 820.6456,-44.3659 1050.9955,-27.9894 1156.7286,-21.3941"/>
<polygon fill="#c0c0c0" stroke="#c0c0c0" stroke-width="2" points="1157.1055,-24.8776 1166.8707,-20.7677 1156.6739,-17.8909 1157.1055,-24.8776"/>
</g>
<!-- 16 -->
<g id="node17" class="node">
<title>16</title>
<path fill="none" stroke="#56d88a" stroke-width="2" d="M1393,-396C1393,-396 1205,-396 1205,-396 1199,-396 1193,-390 1193,-384 1193,-384 1193,-372 1193,-372 1193,-366 1199,-360 1205,-360 1205,-360 1393,-360 1393,-360 1399,-360 1405,-366 1405,-372 1405,-372 1405,-384 1405,-384 1405,-390 1399,-396 1393,-396"/>
<text text-anchor="middle" x="1299" y="-375.5" font-family="sans" font-size="10.00" fill="#000000">aggregate_variant_counts_Wuhan_Hu_1</text>
</g>
<!-- 16&#45;&gt;0 -->
<g id="edge18" class="edge">
<title>16&#45;&gt;0</title>
<path fill="none" stroke="#c0c0c0" stroke-width="2" d="M1243.9107,-359.9634C1226.202,-351.6233 1208.0648,-339.9369 1196,-324 1171.3245,-291.4051 1177,-274.8816 1177,-234 1177,-234 1177,-234 1177,-162 1177,-120.3681 1192.0328,-74.14 1203.1881,-45.567"/>
<polygon fill="#c0c0c0" stroke="#c0c0c0" stroke-width="2" points="1206.4578,-46.817 1206.9412,-36.2332 1199.9632,-44.2055 1206.4578,-46.817"/>
</g>
<!-- 18 -->
<g id="node19" class="node">
<title>18</title>
<path fill="none" stroke="#80d856" stroke-width="2" d="M1381,-324C1381,-324 1217,-324 1217,-324 1211,-324 1205,-318 1205,-312 1205,-312 1205,-300 1205,-300 1205,-294 1211,-288 1217,-288 1217,-288 1381,-288 1381,-288 1387,-288 1393,-294 1393,-300 1393,-300 1393,-312 1393,-312 1393,-318 1387,-324 1381,-324"/>
<text text-anchor="middle" x="1299" y="-303.5" font-family="sans" font-size="10.00" fill="#000000">counts_to_cells_ratio_Wuhan_Hu_1</text>
</g>
<!-- 16&#45;&gt;18 -->
<g id="edge44" class="edge">
<title>16&#45;&gt;18</title>
<path fill="none" stroke="#c0c0c0" stroke-width="2" d="M1299,-359.8314C1299,-352.131 1299,-342.9743 1299,-334.4166"/>
<polygon fill="#c0c0c0" stroke="#c0c0c0" stroke-width="2" points="1302.5001,-334.4132 1299,-324.4133 1295.5001,-334.4133 1302.5001,-334.4132"/>
</g>
<!-- 19 -->
<g id="node20" class="node">
<title>19</title>
<path fill="none" stroke="#56d8a9" stroke-width="2" d="M1580,-324C1580,-324 1434,-324 1434,-324 1428,-324 1422,-318 1422,-312 1422,-312 1422,-300 1422,-300 1422,-294 1428,-288 1434,-288 1434,-288 1580,-288 1580,-288 1586,-288 1592,-294 1592,-300 1592,-300 1592,-312 1592,-312 1592,-318 1586,-324 1580,-324"/>
<text text-anchor="middle" x="1507" y="-303.5" font-family="sans" font-size="10.00" fill="#000000">counts_to_scores_Wuhan_Hu_1</text>
</g>
<!-- 16&#45;&gt;19 -->
<g id="edge45" class="edge">
<title>16&#45;&gt;19</title>
<path fill="none" stroke="#c0c0c0" stroke-width="2" d="M1351.2187,-359.9243C1379.7771,-350.0387 1415.3295,-337.7321 1445.2568,-327.3726"/>
<polygon fill="#c0c0c0" stroke="#c0c0c0" stroke-width="2" points="1446.4549,-330.6618 1454.7598,-324.0831 1444.165,-324.0469 1446.4549,-330.6618"/>
</g>
<!-- 17 -->
<g id="node18" class="node">
<title>17</title>
<path fill="none" stroke="#56d8b9" stroke-width="2" d="M1366,-468C1366,-468 1232,-468 1232,-468 1226,-468 1220,-462 1220,-456 1220,-456 1220,-444 1220,-444 1220,-438 1226,-432 1232,-432 1232,-432 1366,-432 1366,-432 1372,-432 1378,-438 1378,-444 1378,-444 1378,-456 1378,-456 1378,-462 1372,-468 1366,-468"/>
<text text-anchor="middle" x="1299" y="-447.5" font-family="sans" font-size="10.00" fill="#000000">count_variants_Wuhan_Hu_1</text>
</g>
<!-- 17&#45;&gt;16 -->
<g id="edge43" class="edge">
<title>17&#45;&gt;16</title>
<path fill="none" stroke="#c0c0c0" stroke-width="2" d="M1299,-431.8314C1299,-424.131 1299,-414.9743 1299,-406.4166"/>
<polygon fill="#c0c0c0" stroke="#c0c0c0" stroke-width="2" points="1302.5001,-406.4132 1299,-396.4133 1295.5001,-406.4133 1302.5001,-406.4132"/>
</g>
<!-- 18&#45;&gt;0 -->
<g id="edge14" class="edge">
<title>18&#45;&gt;0</title>
<path fill="none" stroke="#c0c0c0" stroke-width="2" d="M1268.4691,-287.9325C1255.9056,-278.8205 1242.551,-266.5894 1235,-252 1200.2991,-184.9538 1205.3319,-92.4834 1210.7749,-46.4385"/>
<polygon fill="#c0c0c0" stroke="#c0c0c0" stroke-width="2" points="1214.275,-46.6598 1212.0716,-36.2966 1207.3315,-45.7719 1214.275,-46.6598"/>
</g>
<!-- 19&#45;&gt;0 -->
<g id="edge20" class="edge">
<title>19&#45;&gt;0</title>
<path fill="none" stroke="#c0c0c0" stroke-width="2" d="M1546.2626,-287.7886C1600.5499,-259.9242 1688.1916,-203.6334 1654,-144 1622.4925,-89.048 1590.5161,-93.686 1531,-72 1444.5064,-40.4842 1337.8674,-27.1511 1273.221,-21.6611"/>
<polygon fill="#c0c0c0" stroke="#c0c0c0" stroke-width="2" points="1273.467,-18.1696 1263.2158,-20.8457 1272.8984,-25.1465 1273.467,-18.1696"/>
</g>
<!-- 20 -->
<g id="node21" class="node">
<title>20</title>
<path fill="none" stroke="#56b1d8" stroke-width="2" d="M1438.5,-252C1438.5,-252 1255.5,-252 1255.5,-252 1249.5,-252 1243.5,-246 1243.5,-240 1243.5,-240 1243.5,-228 1243.5,-228 1243.5,-222 1249.5,-216 1255.5,-216 1255.5,-216 1438.5,-216 1438.5,-216 1444.5,-216 1450.5,-222 1450.5,-228 1450.5,-228 1450.5,-240 1450.5,-240 1450.5,-246 1444.5,-252 1438.5,-252"/>
<text text-anchor="middle" x="1347" y="-231.5" font-family="sans" font-size="10.00" fill="#000000">call_strong_escape_sites_Wuhan_Hu_1</text>
</g>
<!-- 19&#45;&gt;20 -->
<g id="edge46" class="edge">
<title>19&#45;&gt;20</title>
<path fill="none" stroke="#c0c0c0" stroke-width="2" d="M1466.6252,-287.8314C1445.3213,-278.2446 1419.0017,-266.4008 1396.4789,-256.2655"/>
<polygon fill="#c0c0c0" stroke="#c0c0c0" stroke-width="2" points="1397.6399,-252.95 1387.0844,-252.038 1394.7674,-259.3334 1397.6399,-252.95"/>
</g>
<!-- 19&#45;&gt;21 -->
<g id="edge48" class="edge">
<title>19&#45;&gt;21</title>
<path fill="none" stroke="#c0c0c0" stroke-width="2" d="M1501.1141,-287.8511C1493.9817,-268.1717 1480.335,-236.7949 1460,-216 1447.7383,-203.461 1431.9367,-193.05 1416.6171,-184.8257"/>
<polygon fill="#c0c0c0" stroke="#c0c0c0" stroke-width="2" points="1418.1776,-181.6925 1407.6833,-180.2364 1414.979,-187.919 1418.1776,-181.6925"/>
</g>
<!-- 22 -->
<g id="node23" class="node">
<title>22</title>
<path fill="none" stroke="#d86656" stroke-width="2" d="M1633,-180C1633,-180 1511,-180 1511,-180 1505,-180 1499,-174 1499,-168 1499,-168 1499,-156 1499,-156 1499,-150 1505,-144 1511,-144 1511,-144 1633,-144 1633,-144 1639,-144 1645,-150 1645,-156 1645,-156 1645,-168 1645,-168 1645,-174 1639,-180 1633,-180"/>
<text text-anchor="middle" x="1572" y="-159.5" font-family="sans" font-size="10.00" fill="#000000">output_pdbs_Wuhan_Hu_1</text>
</g>
<!-- 19&#45;&gt;22 -->
<g id="edge50" class="edge">
<title>19&#45;&gt;22</title>
<path fill="none" stroke="#c0c0c0" stroke-width="2" d="M1515.2323,-287.7623C1526.4655,-262.8764 1546.6851,-218.0822 1559.7148,-189.2165"/>
<polygon fill="#c0c0c0" stroke="#c0c0c0" stroke-width="2" points="1562.9104,-190.6441 1563.8345,-180.0896 1556.5302,-187.7641 1562.9104,-190.6441"/>
</g>
<!-- 23 -->
<g id="node24" class="node">
<title>23</title>
<path fill="none" stroke="#5673d8" stroke-width="2" d="M1476.5,-108C1476.5,-108 1331.5,-108 1331.5,-108 1325.5,-108 1319.5,-102 1319.5,-96 1319.5,-96 1319.5,-84 1319.5,-84 1319.5,-78 1325.5,-72 1331.5,-72 1331.5,-72 1476.5,-72 1476.5,-72 1482.5,-72 1488.5,-78 1488.5,-84 1488.5,-84 1488.5,-96 1488.5,-96 1488.5,-102 1482.5,-108 1476.5,-108"/>
<text text-anchor="middle" x="1404" y="-87.5" font-family="sans" font-size="10.00" fill="#000000">make_supp_data_Wuhan_Hu_1</text>
</g>
<!-- 19&#45;&gt;23 -->
<g id="edge52" class="edge">
<title>19&#45;&gt;23</title>
<path fill="none" stroke="#c0c0c0" stroke-width="2" d="M1503.9182,-287.7508C1500.5369,-269.3383 1494.445,-240.2427 1486,-216 1474.3585,-182.5811 1471.5094,-173.5251 1452,-144 1445.5409,-134.225 1437.4051,-124.3942 1429.676,-115.8497"/>
<polygon fill="#c0c0c0" stroke="#c0c0c0" stroke-width="2" points="1432.1245,-113.343 1422.7519,-108.4028 1426.998,-118.1095 1432.1245,-113.343"/>
</g>
<!-- 20&#45;&gt;0 -->
<g id="edge24" class="edge">
<title>20&#45;&gt;0</title>
<path fill="none" stroke="#c0c0c0" stroke-width="2" d="M1313.9763,-215.9903C1299.7201,-206.8163 1283.8581,-194.5198 1273,-180 1256.7891,-158.3222 1234.464,-86.1524 1222.8052,-45.8415"/>
<polygon fill="#c0c0c0" stroke="#c0c0c0" stroke-width="2" points="1226.1315,-44.7434 1220.0141,-36.093 1219.4019,-46.6702 1226.1315,-44.7434"/>
</g>
<!-- 20&#45;&gt;21 -->
<g id="edge49" class="edge">
<title>20&#45;&gt;21</title>
<path fill="none" stroke="#c0c0c0" stroke-width="2" d="M1350.7851,-215.8314C1352.3894,-208.131 1354.297,-198.9743 1356.0799,-190.4166"/>
<polygon fill="#c0c0c0" stroke="#c0c0c0" stroke-width="2" points="1359.5507,-190.9169 1358.1639,-180.4133 1352.6979,-189.4892 1359.5507,-190.9169"/>
</g>
<!-- 21&#45;&gt;0 -->
<g id="edge6" class="edge">
<title>21&#45;&gt;0</title>
<path fill="none" stroke="#c0c0c0" stroke-width="2" d="M1343.3823,-143.7623C1317.4258,-118.3354 1270.2529,-72.1253 1240.8851,-43.3569"/>
<polygon fill="#c0c0c0" stroke="#c0c0c0" stroke-width="2" points="1243.0593,-40.5872 1233.4665,-36.0896 1238.1609,-45.5877 1243.0593,-40.5872"/>
</g>
<!-- 21&#45;&gt;23 -->
<g id="edge51" class="edge">
<title>21&#45;&gt;23</title>
<path fill="none" stroke="#c0c0c0" stroke-width="2" d="M1372.5984,-143.8314C1377.2877,-135.7925 1382.9028,-126.1666 1388.0798,-117.2918"/>
<polygon fill="#c0c0c0" stroke="#c0c0c0" stroke-width="2" points="1391.2434,-118.8146 1393.2589,-108.4133 1385.1969,-115.2875 1391.2434,-118.8146"/>
</g>
<!-- 22&#45;&gt;0 -->
<g id="edge1" class="edge">
<title>22&#45;&gt;0</title>
<path fill="none" stroke="#c0c0c0" stroke-width="2" d="M1562.3555,-143.9267C1550.2317,-123.0811 1527.3988,-89.4471 1498,-72 1460.7946,-49.92 1344.6435,-33.0226 1273.2314,-24.3862"/>
<polygon fill="#c0c0c0" stroke="#c0c0c0" stroke-width="2" points="1273.3782,-20.879 1263.0345,-23.1722 1272.5506,-27.8299 1273.3782,-20.879"/>
</g>
<!-- 23&#45;&gt;0 -->
<g id="edge28" class="edge">
<title>23&#45;&gt;0</title>
<path fill="none" stroke="#c0c0c0" stroke-width="2" d="M1356.3073,-71.8314C1330.6927,-62.0734 1298.9398,-49.977 1272.026,-39.7242"/>
<polygon fill="#c0c0c0" stroke="#c0c0c0" stroke-width="2" points="1272.9406,-36.3273 1262.3497,-36.038 1270.4486,-42.8687 1272.9406,-36.3273"/>
</g>
<!-- 24&#45;&gt;0 -->
<g id="edge22" class="edge">
<title>24&#45;&gt;0</title>
<path fill="none" stroke="#c0c0c0" stroke-width="2" d="M1795.4957,-143.8517C1782.1072,-122.5992 1756.8331,-88.2397 1725,-72 1647.3378,-32.3806 1390.0356,-21.7767 1273.3912,-18.9809"/>
<polygon fill="#c0c0c0" stroke="#c0c0c0" stroke-width="2" points="1273.3005,-15.478 1263.2231,-18.7485 1273.1405,-22.4762 1273.3005,-15.478"/>
</g>
<!-- 25 -->
<g id="node26" class="node">
<title>25</title>
<path fill="none" stroke="#9fd856" stroke-width="2" d="M2085,-396C2085,-396 1929,-396 1929,-396 1923,-396 1917,-390 1917,-384 1917,-384 1917,-372 1917,-372 1917,-366 1923,-360 1929,-360 1929,-360 2085,-360 2085,-360 2091,-360 2097,-366 2097,-372 2097,-372 2097,-384 2097,-384 2097,-390 2091,-396 2085,-396"/>
<text text-anchor="middle" x="2007" y="-375.5" font-family="sans" font-size="10.00" fill="#000000">aggregate_variant_counts_SARS1</text>
</g>
<!-- 25&#45;&gt;0 -->
<g id="edge10" class="edge">
<title>25&#45;&gt;0</title>
<path fill="none" stroke="#c0c0c0" stroke-width="2" d="M1963.5408,-359.997C1947.5967,-351.3368 1930.8209,-339.4271 1920,-324 1896.524,-290.5308 1901,-274.8816 1901,-234 1901,-234 1901,-234 1901,-162 1901,-126.3216 1971.8264,-141.2481 1760,-72 1670.7577,-42.8258 1394.8517,-26.5269 1273.4021,-20.6008"/>
<polygon fill="#c0c0c0" stroke="#c0c0c0" stroke-width="2" points="1273.3417,-17.094 1263.1849,-20.109 1273.0051,-24.0859 1273.3417,-17.094"/>
</g>
<!-- 27 -->
<g id="node28" class="node">
<title>27</title>
<path fill="none" stroke="#56d85b" stroke-width="2" d="M2073,-324C2073,-324 1941,-324 1941,-324 1935,-324 1929,-318 1929,-312 1929,-312 1929,-300 1929,-300 1929,-294 1935,-288 1941,-288 1941,-288 2073,-288 2073,-288 2079,-288 2085,-294 2085,-300 2085,-300 2085,-312 2085,-312 2085,-318 2079,-324 2073,-324"/>
<text text-anchor="middle" x="2007" y="-303.5" font-family="sans" font-size="10.00" fill="#000000">counts_to_cells_ratio_SARS1</text>
</g>
<!-- 25&#45;&gt;27 -->
<g id="edge55" class="edge">
<title>25&#45;&gt;27</title>
<path fill="none" stroke="#c0c0c0" stroke-width="2" d="M2007,-359.8314C2007,-352.131 2007,-342.9743 2007,-334.4166"/>
<polygon fill="#c0c0c0" stroke="#c0c0c0" stroke-width="2" points="2010.5001,-334.4132 2007,-324.4133 2003.5001,-334.4133 2010.5001,-334.4132"/>
</g>
<!-- 28 -->
<g id="node29" class="node">
<title>28</title>
<path fill="none" stroke="#d89556" stroke-width="2" d="M2246.5,-324C2246.5,-324 2133.5,-324 2133.5,-324 2127.5,-324 2121.5,-318 2121.5,-312 2121.5,-312 2121.5,-300 2121.5,-300 2121.5,-294 2127.5,-288 2133.5,-288 2133.5,-288 2246.5,-288 2246.5,-288 2252.5,-288 2258.5,-294 2258.5,-300 2258.5,-300 2258.5,-312 2258.5,-312 2258.5,-318 2252.5,-324 2246.5,-324"/>
<text text-anchor="middle" x="2190" y="-303.5" font-family="sans" font-size="10.00" fill="#000000">counts_to_scores_SARS1</text>
</g>
<!-- 25&#45;&gt;28 -->
<g id="edge56" class="edge">
<title>25&#45;&gt;28</title>
<path fill="none" stroke="#c0c0c0" stroke-width="2" d="M2053.1786,-359.8314C2077.9801,-350.0734 2108.725,-337.977 2134.7843,-327.7242"/>
<polygon fill="#c0c0c0" stroke="#c0c0c0" stroke-width="2" points="2136.1292,-330.9563 2144.1534,-324.038 2133.5663,-324.4423 2136.1292,-330.9563"/>
</g>
<!-- 26 -->
<g id="node27" class="node">
<title>26</title>
<path fill="none" stroke="#56d86b" stroke-width="2" d="M2057.5,-468C2057.5,-468 1956.5,-468 1956.5,-468 1950.5,-468 1944.5,-462 1944.5,-456 1944.5,-456 1944.5,-444 1944.5,-444 1944.5,-438 1950.5,-432 1956.5,-432 1956.5,-432 2057.5,-432 2057.5,-432 2063.5,-432 2069.5,-438 2069.5,-444 2069.5,-444 2069.5,-456 2069.5,-456 2069.5,-462 2063.5,-468 2057.5,-468"/>
<text text-anchor="middle" x="2007" y="-447.5" font-family="sans" font-size="10.00" fill="#000000">count_variants_SARS1</text>
</g>
<!-- 26&#45;&gt;25 -->
<g id="edge54" class="edge">
<title>26&#45;&gt;25</title>
<path fill="none" stroke="#c0c0c0" stroke-width="2" d="M2007,-431.8314C2007,-424.131 2007,-414.9743 2007,-406.4166"/>
<polygon fill="#c0c0c0" stroke="#c0c0c0" stroke-width="2" points="2010.5001,-406.4132 2007,-396.4133 2003.5001,-406.4133 2010.5001,-406.4132"/>
</g>
<!-- 27&#45;&gt;0 -->
<g id="edge16" class="edge">
<title>27&#45;&gt;0</title>
<path fill="none" stroke="#c0c0c0" stroke-width="2" d="M1986.674,-287.7573C1976.9772,-278.0271 1965.9933,-265.3288 1959,-252 1920.7369,-179.0729 1977.775,-125.3077 1915,-72 1866.5604,-30.8657 1432.5026,-20.9143 1273.2473,-18.6383"/>
<polygon fill="#c0c0c0" stroke="#c0c0c0" stroke-width="2" points="1273.2092,-15.1376 1263.1618,-18.4993 1273.1126,-22.1369 1273.2092,-15.1376"/>
</g>
<!-- 28&#45;&gt;0 -->
<g id="edge3" class="edge">
<title>28&#45;&gt;0</title>
<path fill="none" stroke="#c0c0c0" stroke-width="2" d="M2197.3679,-287.6904C2213.7257,-243.6977 2247.2997,-131.3113 2190,-72 2158.0346,-38.9123 1479.0798,-23.1085 1273.4808,-19.0696"/>
<polygon fill="#c0c0c0" stroke="#c0c0c0" stroke-width="2" points="1273.2579,-15.5647 1263.1918,-18.8696 1273.1218,-22.5634 1273.2579,-15.5647"/>
</g>
<!-- 29 -->
<g id="node30" class="node">
<title>29</title>
<path fill="none" stroke="#afd856" stroke-width="2" d="M2130.5,-252C2130.5,-252 1979.5,-252 1979.5,-252 1973.5,-252 1967.5,-246 1967.5,-240 1967.5,-240 1967.5,-228 1967.5,-228 1967.5,-222 1973.5,-216 1979.5,-216 1979.5,-216 2130.5,-216 2130.5,-216 2136.5,-216 2142.5,-222 2142.5,-228 2142.5,-228 2142.5,-240 2142.5,-240 2142.5,-246 2136.5,-252 2130.5,-252"/>
<text text-anchor="middle" x="2055" y="-231.5" font-family="sans" font-size="10.00" fill="#000000">call_strong_escape_sites_SARS1</text>
</g>
<!-- 28&#45;&gt;29 -->
<g id="edge57" class="edge">
<title>28&#45;&gt;29</title>
<path fill="none" stroke="#c0c0c0" stroke-width="2" d="M2155.9338,-287.8314C2138.3467,-278.4516 2116.7084,-266.9112 2097.9832,-256.9244"/>
<polygon fill="#c0c0c0" stroke="#c0c0c0" stroke-width="2" points="2099.5259,-253.7805 2089.0553,-252.1628 2096.2318,-259.957 2099.5259,-253.7805"/>
</g>
<!-- 28&#45;&gt;30 -->
<g id="edge59" class="edge">
<title>28&#45;&gt;30</title>
<path fill="none" stroke="#c0c0c0" stroke-width="2" d="M2185.6973,-287.7683C2180.3824,-268.3043 2169.7908,-237.382 2152,-216 2142.0787,-204.0761 2128.8495,-193.806 2115.9177,-185.5207"/>
<polygon fill="#c0c0c0" stroke="#c0c0c0" stroke-width="2" points="2117.4147,-182.3337 2107.0568,-180.1058 2113.7646,-188.3068 2117.4147,-182.3337"/>
</g>
<!-- 31 -->
<g id="node32" class="node">
<title>31</title>
<path fill="none" stroke="#56c1d8" stroke-width="2" d="M2376.5,-252C2376.5,-252 2287.5,-252 2287.5,-252 2281.5,-252 2275.5,-246 2275.5,-240 2275.5,-240 2275.5,-228 2275.5,-228 2275.5,-222 2281.5,-216 2287.5,-216 2287.5,-216 2376.5,-216 2376.5,-216 2382.5,-216 2388.5,-222 2388.5,-228 2388.5,-228 2388.5,-240 2388.5,-240 2388.5,-246 2382.5,-252 2376.5,-252"/>
<text text-anchor="middle" x="2332" y="-231.5" font-family="sans" font-size="10.00" fill="#000000">output_pdbs_SARS1</text>
</g>
<!-- 28&#45;&gt;31 -->
<g id="edge61" class="edge">
<title>28&#45;&gt;31</title>
<path fill="none" stroke="#c0c0c0" stroke-width="2" d="M2225.8326,-287.8314C2244.4157,-278.4089 2267.2989,-266.8062 2287.0565,-256.7883"/>
<polygon fill="#c0c0c0" stroke="#c0c0c0" stroke-width="2" points="2288.8427,-259.8069 2296.1789,-252.1628 2285.677,-253.5635 2288.8427,-259.8069"/>
</g>
<!-- 32 -->
<g id="node33" class="node">
<title>32</title>
<path fill="none" stroke="#8fd856" stroke-width="2" d="M2168.5,-108C2168.5,-108 2055.5,-108 2055.5,-108 2049.5,-108 2043.5,-102 2043.5,-96 2043.5,-96 2043.5,-84 2043.5,-84 2043.5,-78 2049.5,-72 2055.5,-72 2055.5,-72 2168.5,-72 2168.5,-72 2174.5,-72 2180.5,-78 2180.5,-84 2180.5,-84 2180.5,-96 2180.5,-96 2180.5,-102 2174.5,-108 2168.5,-108"/>
<text text-anchor="middle" x="2112" y="-87.5" font-family="sans" font-size="10.00" fill="#000000">make_supp_data_SARS1</text>
</g>
<!-- 28&#45;&gt;32 -->
<g id="edge62" class="edge">
<title>28&#45;&gt;32</title>
<path fill="none" stroke="#c0c0c0" stroke-width="2" d="M2188.5843,-287.7628C2186.827,-269.3595 2183.1443,-240.271 2176,-216 2166.1117,-182.407 2160.0646,-175.1159 2144,-144 2139.3741,-135.0401 2133.9116,-125.5024 2128.8217,-116.9752"/>
<polygon fill="#c0c0c0" stroke="#c0c0c0" stroke-width="2" points="2131.677,-114.9334 2123.5019,-108.194 2125.6899,-118.5605 2131.677,-114.9334"/>
</g>
<!-- 29&#45;&gt;0 -->
<g id="edge11" class="edge">
<title>29&#45;&gt;0</title>
<path fill="none" stroke="#c0c0c0" stroke-width="2" d="M2031.2235,-215.9774C2019.7065,-206.3033 2006.3763,-193.5888 1997,-180 1967.5639,-137.3393 1994.927,-102.4721 1953,-72 1898.5336,-32.4144 1438.3347,-21.4495 1273.4672,-18.7766"/>
<polygon fill="#c0c0c0" stroke="#c0c0c0" stroke-width="2" points="1273.0961,-15.2704 1263.0422,-18.6123 1272.9857,-22.2696 1273.0961,-15.2704"/>
</g>
<!-- 29&#45;&gt;30 -->
<g id="edge58" class="edge">
<title>29&#45;&gt;30</title>
<path fill="none" stroke="#c0c0c0" stroke-width="2" d="M2058.7851,-215.8314C2060.3894,-208.131 2062.297,-198.9743 2064.0799,-190.4166"/>
<polygon fill="#c0c0c0" stroke="#c0c0c0" stroke-width="2" points="2067.5507,-190.9169 2066.1639,-180.4133 2060.6979,-189.4892 2067.5507,-190.9169"/>
</g>
<!-- 30&#45;&gt;0 -->
<g id="edge26" class="edge">
<title>30&#45;&gt;0</title>
<path fill="none" stroke="#c0c0c0" stroke-width="2" d="M2059.9663,-143.6652C2047.1164,-122.2291 2022.6711,-87.6889 1991,-72 1927.2519,-40.4212 1442.7124,-24.2428 1273.276,-19.5071"/>
<polygon fill="#c0c0c0" stroke="#c0c0c0" stroke-width="2" points="1273.1475,-16.0023 1263.0546,-19.2246 1272.954,-22.9996 1273.1475,-16.0023"/>
</g>
<!-- 30&#45;&gt;32 -->
<g id="edge63" class="edge">
<title>30&#45;&gt;32</title>
<path fill="none" stroke="#c0c0c0" stroke-width="2" d="M2080.5984,-143.8314C2085.2877,-135.7925 2090.9028,-126.1666 2096.0798,-117.2918"/>
<polygon fill="#c0c0c0" stroke="#c0c0c0" stroke-width="2" points="2099.2434,-118.8146 2101.2589,-108.4133 2093.1969,-115.2875 2099.2434,-118.8146"/>
</g>
<!-- 31&#45;&gt;0 -->
<g id="edge23" class="edge">
<title>31&#45;&gt;0</title>
<path fill="none" stroke="#c0c0c0" stroke-width="2" d="M2330.1117,-215.7871C2325.4331,-181.0479 2309.8839,-105.7787 2261,-72 2220.1554,-43.7765 1487.5478,-24.4037 1273.3551,-19.3246"/>
<polygon fill="#c0c0c0" stroke="#c0c0c0" stroke-width="2" points="1273.3337,-15.8232 1263.254,-19.0866 1273.1687,-22.8213 1273.3337,-15.8232"/>
</g>
<!-- 32&#45;&gt;0 -->
<g id="edge12" class="edge">
<title>32&#45;&gt;0</title>
<path fill="none" stroke="#c0c0c0" stroke-width="2" d="M2043.2979,-74.2847C2038.4732,-73.4327 2033.6722,-72.6579 2029,-72 1747.7699,-32.3968 1407.6749,-21.7038 1273.4864,-18.9292"/>
<polygon fill="#c0c0c0" stroke="#c0c0c0" stroke-width="2" points="1273.4906,-15.4286 1263.4226,-18.7281 1273.3507,-22.4272 1273.4906,-15.4286"/>
</g>
</g>
</svg>
